<mxfile host="Electron" modified="2023-04-06T05:36:11.086Z" agent="Mozilla/5.0 (Windows NT 10.0; Win64; x64) AppleWebKit/537.36 (KHTML, like Gecko) draw.io/21.1.2 Chrome/106.0.5249.199 Electron/21.4.3 Safari/537.36" etag="BMYs7WjVLbcxdIuisV5R" version="21.1.2" type="device">
  <diagram name="페이지-1" id="lItdhtb77sRxpboaPcHe">
    <mxGraphModel dx="1434" dy="844" grid="1" gridSize="10" guides="1" tooltips="1" connect="1" arrows="1" fold="1" page="1" pageScale="1" pageWidth="1169" pageHeight="827" background="#ffffff" math="0" shadow="0">
      <root>
        <mxCell id="0" />
        <mxCell id="1" parent="0" />
        <mxCell id="dB2ldAJGYxMLB2tkPeIX-33" style="edgeStyle=orthogonalEdgeStyle;rounded=0;orthogonalLoop=1;jettySize=auto;html=1;entryX=0.5;entryY=0;entryDx=0;entryDy=0;endArrow=none;endFill=0;" edge="1" parent="1" source="dB2ldAJGYxMLB2tkPeIX-3" target="dB2ldAJGYxMLB2tkPeIX-5">
          <mxGeometry relative="1" as="geometry" />
        </mxCell>
        <mxCell id="dB2ldAJGYxMLB2tkPeIX-3" value="&lt;font style=&quot;font-size: 18px;&quot;&gt;유저&lt;/font&gt;" style="ellipse;whiteSpace=wrap;html=1;fillColor=#ffe6cc;strokeColor=#d79b00;" vertex="1" parent="1">
          <mxGeometry x="370" y="190" width="120" height="80" as="geometry" />
        </mxCell>
        <mxCell id="dB2ldAJGYxMLB2tkPeIX-5" value="" style="rounded=0;whiteSpace=wrap;html=1;fillColor=#f5f5f5;strokeColor=#666666;fontColor=#333333;" vertex="1" parent="1">
          <mxGeometry x="80" y="310" width="700" height="310" as="geometry" />
        </mxCell>
        <mxCell id="dB2ldAJGYxMLB2tkPeIX-13" value="" style="rounded=0;whiteSpace=wrap;html=1;fillColor=#dae8fc;strokeColor=#6c8ebf;" vertex="1" parent="1">
          <mxGeometry x="100" y="360" width="210" height="240" as="geometry" />
        </mxCell>
        <mxCell id="dB2ldAJGYxMLB2tkPeIX-14" value="저장소 1 (Container)" style="rounded=0;whiteSpace=wrap;html=1;fillColor=#dae8fc;strokeColor=#6c8ebf;" vertex="1" parent="1">
          <mxGeometry x="100" y="330" width="210" height="30" as="geometry" />
        </mxCell>
        <mxCell id="dB2ldAJGYxMLB2tkPeIX-15" value="게시글 1 (Post)" style="rounded=1;whiteSpace=wrap;html=1;fillColor=#d5e8d4;strokeColor=#82b366;" vertex="1" parent="1">
          <mxGeometry x="110" y="370" width="190" height="30" as="geometry" />
        </mxCell>
        <mxCell id="dB2ldAJGYxMLB2tkPeIX-16" value="게시글 2 (Post)" style="rounded=1;whiteSpace=wrap;html=1;fillColor=#d5e8d4;strokeColor=#82b366;" vertex="1" parent="1">
          <mxGeometry x="110" y="413.5" width="190" height="30" as="geometry" />
        </mxCell>
        <mxCell id="dB2ldAJGYxMLB2tkPeIX-17" value="게시글 3 (Post)" style="rounded=1;whiteSpace=wrap;html=1;fillColor=#d5e8d4;strokeColor=#82b366;" vertex="1" parent="1">
          <mxGeometry x="110" y="460" width="190" height="30" as="geometry" />
        </mxCell>
        <mxCell id="dB2ldAJGYxMLB2tkPeIX-18" value="게시글 4 (Post)" style="rounded=1;whiteSpace=wrap;html=1;fillColor=#d5e8d4;strokeColor=#82b366;" vertex="1" parent="1">
          <mxGeometry x="110" y="510" width="190" height="30" as="geometry" />
        </mxCell>
        <mxCell id="dB2ldAJGYxMLB2tkPeIX-19" value="게시글 5 (Post)" style="rounded=1;whiteSpace=wrap;html=1;fillColor=#d5e8d4;strokeColor=#82b366;" vertex="1" parent="1">
          <mxGeometry x="110" y="560" width="190" height="30" as="geometry" />
        </mxCell>
        <mxCell id="dB2ldAJGYxMLB2tkPeIX-20" value="" style="rounded=0;whiteSpace=wrap;html=1;fillColor=#dae8fc;strokeColor=#6c8ebf;" vertex="1" parent="1">
          <mxGeometry x="325" y="360" width="210" height="240" as="geometry" />
        </mxCell>
        <mxCell id="dB2ldAJGYxMLB2tkPeIX-21" value="저장소 2 (Container)" style="rounded=0;whiteSpace=wrap;html=1;fillColor=#dae8fc;strokeColor=#6c8ebf;" vertex="1" parent="1">
          <mxGeometry x="325" y="330" width="210" height="30" as="geometry" />
        </mxCell>
        <mxCell id="dB2ldAJGYxMLB2tkPeIX-22" value="게시글 1 (Post)" style="rounded=1;whiteSpace=wrap;html=1;fillColor=#d5e8d4;strokeColor=#82b366;" vertex="1" parent="1">
          <mxGeometry x="335" y="370" width="190" height="30" as="geometry" />
        </mxCell>
        <mxCell id="dB2ldAJGYxMLB2tkPeIX-24" value="게시글 3 (Post)" style="rounded=1;whiteSpace=wrap;html=1;fillColor=#d5e8d4;strokeColor=#82b366;" vertex="1" parent="1">
          <mxGeometry x="335" y="460" width="190" height="30" as="geometry" />
        </mxCell>
        <mxCell id="dB2ldAJGYxMLB2tkPeIX-26" value="게시글 5 (Post)" style="rounded=1;whiteSpace=wrap;html=1;fillColor=#d5e8d4;strokeColor=#82b366;" vertex="1" parent="1">
          <mxGeometry x="335" y="560" width="190" height="30" as="geometry" />
        </mxCell>
        <mxCell id="dB2ldAJGYxMLB2tkPeIX-27" value="" style="rounded=0;whiteSpace=wrap;html=1;fillColor=#dae8fc;strokeColor=#6c8ebf;" vertex="1" parent="1">
          <mxGeometry x="550" y="360" width="210" height="240" as="geometry" />
        </mxCell>
        <mxCell id="dB2ldAJGYxMLB2tkPeIX-28" value="저장소 3 (Container)" style="rounded=0;whiteSpace=wrap;html=1;fillColor=#dae8fc;strokeColor=#6c8ebf;" vertex="1" parent="1">
          <mxGeometry x="550" y="330" width="210" height="30" as="geometry" />
        </mxCell>
        <mxCell id="dB2ldAJGYxMLB2tkPeIX-29" value="게시글 1 (Post)" style="rounded=1;whiteSpace=wrap;html=1;fillColor=#d5e8d4;strokeColor=#82b366;" vertex="1" parent="1">
          <mxGeometry x="560" y="370" width="190" height="30" as="geometry" />
        </mxCell>
        <mxCell id="dB2ldAJGYxMLB2tkPeIX-32" value="유저에게 할당된 공간" style="rounded=0;whiteSpace=wrap;html=1;fillColor=#f5f5f5;fontColor=#333333;strokeColor=#666666;" vertex="1" parent="1">
          <mxGeometry x="80" y="280" width="170" height="30" as="geometry" />
        </mxCell>
        <mxCell id="dB2ldAJGYxMLB2tkPeIX-40" value="&lt;h1&gt;&lt;font style=&quot;font-size: 19px;&quot;&gt;유저&lt;/font&gt;&lt;/h1&gt;&lt;p&gt;계정을 생성한 유저는 게시글을 저장할 수 있는 공간을 할당받는다.&lt;/p&gt;&lt;p&gt;유저는 각각 독립적인 공간을 갖는다.&lt;/p&gt;" style="text;html=1;strokeColor=none;fillColor=none;spacing=5;spacingTop=-20;whiteSpace=wrap;overflow=hidden;rounded=0;" vertex="1" parent="1">
          <mxGeometry x="500" y="190" width="230" height="110" as="geometry" />
        </mxCell>
        <mxCell id="dB2ldAJGYxMLB2tkPeIX-41" value="&lt;h1&gt;&lt;font style=&quot;font-size: 19px;&quot;&gt;저장소&lt;/font&gt;&lt;/h1&gt;&lt;p&gt;저장소는 유저에 의해 삽입, 삭제 될 수 있으며, 게시글을 저장한다.&lt;/p&gt;&lt;p&gt;각각의 저장소는 다른 저장소의 영향을 받지 않도록 한다.&lt;/p&gt;" style="text;html=1;strokeColor=none;fillColor=none;spacing=5;spacingTop=-20;whiteSpace=wrap;overflow=hidden;rounded=0;" vertex="1" parent="1">
          <mxGeometry x="780" y="330" width="220" height="130" as="geometry" />
        </mxCell>
        <mxCell id="dB2ldAJGYxMLB2tkPeIX-42" value="&lt;h1&gt;&lt;span style=&quot;font-size: 19px;&quot;&gt;게시글&lt;/span&gt;&lt;/h1&gt;&lt;p&gt;게시글은 저장소 내에서 삽입, 삭제, 수정될 수 있다.&lt;/p&gt;&lt;p&gt;게시글이 속한 저장소가 삭제될 경우 게시글 또한 삭제된다.&lt;/p&gt;" style="text;html=1;strokeColor=none;fillColor=none;spacing=5;spacingTop=-20;whiteSpace=wrap;overflow=hidden;rounded=0;" vertex="1" parent="1">
          <mxGeometry x="780" y="465" width="220" height="135" as="geometry" />
        </mxCell>
      </root>
    </mxGraphModel>
  </diagram>
</mxfile>
